<?xml version="1.0" encoding="UTF-8" standalone="no"?>
<!DOCTYPE svg PUBLIC "-//W3C//DTD SVG 1.1//EN"
 "http://www.w3.org/Graphics/SVG/1.1/DTD/svg11.dtd">
<!-- Generated by graphviz version 2.40.1 (20161225.0304)
 -->
<!-- Title: Source/Entity.cpp Pages: 1 -->
<svg width="124pt" height="140pt"
 viewBox="0.00 0.00 123.50 140.00" xmlns="http://www.w3.org/2000/svg" xmlns:xlink="http://www.w3.org/1999/xlink">
<g id="graph0" class="graph" transform="scale(1 1) rotate(0) translate(4 136)">
<title>Source/Entity.cpp</title>
<polygon fill="#ffffff" stroke="transparent" points="-4,4 -4,-136 119.5,-136 119.5,4 -4,4"/>
<!-- Node0 -->
<g id="node1" class="node">
<title>Node0</title>
<polygon fill="#bfbfbf" stroke="#000000" points="9.5,-112.5 9.5,-131.5 104.5,-131.5 104.5,-112.5 9.5,-112.5"/>
<text text-anchor="middle" x="57" y="-119.5" font-family="Helvetica,sans-Serif" font-size="10.00" fill="#000000">Source/Entity.cpp</text>
</g>
<!-- Node1 -->
<g id="node2" class="node">
<title>Node1</title>
<g id="a_node2"><a xlink:href="_entity_8hpp.html" target="_top" xlink:title="C++ Entity Utilitis ">
<polygon fill="#ffffff" stroke="#000000" points="26.5,-56.5 26.5,-75.5 87.5,-75.5 87.5,-56.5 26.5,-56.5"/>
<text text-anchor="middle" x="57" y="-63.5" font-family="Helvetica,sans-Serif" font-size="10.00" fill="#000000">Entity.hpp</text>
</a>
</g>
</g>
<!-- Node0&#45;&gt;Node1 -->
<g id="edge1" class="edge">
<title>Node0&#45;&gt;Node1</title>
<path fill="none" stroke="#191970" d="M57,-112.2455C57,-104.9382 57,-94.6944 57,-85.7046"/>
<polygon fill="#191970" stroke="#191970" points="60.5001,-85.6426 57,-75.6427 53.5001,-85.6427 60.5001,-85.6426"/>
</g>
<!-- Node2 -->
<g id="node3" class="node">
<title>Node2</title>
<polygon fill="#ffffff" stroke="#bfbfbf" points="0,-.5 0,-19.5 48,-19.5 48,-.5 0,-.5"/>
<text text-anchor="middle" x="24" y="-7.5" font-family="Helvetica,sans-Serif" font-size="10.00" fill="#000000">stdlib.h</text>
</g>
<!-- Node1&#45;&gt;Node2 -->
<g id="edge2" class="edge">
<title>Node1&#45;&gt;Node2</title>
<path fill="none" stroke="#191970" d="M51.2518,-56.2455C46.7565,-48.617 40.3752,-37.7881 34.9175,-28.5267"/>
<polygon fill="#191970" stroke="#191970" points="37.7747,-26.4811 29.6823,-19.6427 31.7439,-30.035 37.7747,-26.4811"/>
</g>
<!-- Node3 -->
<g id="node4" class="node">
<title>Node3</title>
<polygon fill="#ffffff" stroke="#bfbfbf" points="66.5,-.5 66.5,-19.5 115.5,-19.5 115.5,-.5 66.5,-.5"/>
<text text-anchor="middle" x="91" y="-7.5" font-family="Helvetica,sans-Serif" font-size="10.00" fill="#000000">string.h</text>
</g>
<!-- Node1&#45;&gt;Node3 -->
<g id="edge3" class="edge">
<title>Node1&#45;&gt;Node3</title>
<path fill="none" stroke="#191970" d="M62.9223,-56.2455C67.6027,-48.5367 74.2673,-37.5598 79.9289,-28.2348"/>
<polygon fill="#191970" stroke="#191970" points="82.9475,-30.007 85.1455,-19.6427 76.9639,-26.3741 82.9475,-30.007"/>
</g>
</g>
</svg>
